<?xml version="1.0" encoding="UTF-8"?>
<svg version="1.1" xmlns="http://www.w3.org/2000/svg" width="2000" height="2000">
<path d="M0 0 C1.0767889 -0.00066278 1.0767889 -0.00066278 2.17533112 -0.00133896 C88.41548785 -0.02902195 174.21250253 11.6092903 460.02636719 123.67333984 C462.40803751 125.08442489 464.79808319 126.47885161 467.1953125 127.86328125 C492.20192052 142.32831811 516.15113665 158.54233146 539.44580078 175.60986328 C541.78069641 177.31818705 544.12252205 179.01671973 546.46484375 180.71484375 C555.49117339 187.28324838 564.28876675 194.05190395 572.90234375 201.15234375 C576.56930716 204.1715868 580.30878552 207.08988589 584.0625 210 C589.08323287 213.90579654 593.86880984 217.99379469 598.5546875 222.30078125 C601.19370497 224.71263055 603.91779213 226.99050147 606.6875 229.25 C601.50055874 235.53064965 595.82198559 241.2530885 590.05740356 247.00035095 C588.97543903 248.08275205 587.89369448 249.16537309 586.81214988 250.2481938 C583.85213557 253.21043626 580.88902557 256.16956483 577.92538595 259.12817967 C574.7252829 262.32395423 571.52808064 265.52262861 568.33052063 268.72094727 C562.79430862 274.25768299 557.25627226 279.79258847 551.7169838 285.32624626 C543.70815734 293.32693708 535.70210177 301.33039595 527.69671439 309.33452768 C514.70764319 322.32141161 501.71634155 335.30606195 488.72363281 348.28930664 C476.10429554 360.8994614 463.48601159 373.51066862 450.86914062 386.12329102 C450.09111112 386.9010578 449.31308162 387.67882458 448.51147546 388.48016005 C444.60823946 392.38209099 440.70502413 396.28404261 436.80181909 400.18600452 C404.43358432 432.54387678 372.06172777 464.89812384 339.6875 497.25 C336.31123666 495.01225387 332.99188652 492.78932098 329.83203125 490.25390625 C319.10690045 481.73352392 308.12776766 473.78210169 296.6875 466.25 C295.82640625 465.6828125 294.9653125 465.115625 294.078125 464.53125 C280.2853857 455.49740906 266.1611099 447.14437318 251.6875 439.25 C251.12385742 438.94136017 250.56021484 438.63272034 249.97949219 438.31472778 C240.83303044 433.31839885 231.57262508 428.70443209 222.0625 424.4375 C221.40341644 424.14074371 220.74433289 423.84398743 220.0652771 423.53823853 C163.92240338 398.33925309 104.82817052 383.7802742 43.6875 378.25 C42.54474609 378.1454248 41.40199219 378.04084961 40.22460938 377.93310547 C27.65206102 376.93875706 15.0417696 377.00724157 2.4375 377 C1.21984955 376.99899292 0.0021991 376.99798584 -1.25234985 376.99694824 C-21.4328889 377.0082013 -41.28267378 377.79891639 -61.3125 380.25 C-62.52180176 380.39453613 -63.73110352 380.53907227 -64.97705078 380.68798828 C-73.12155046 381.68846212 -81.21983728 382.8946177 -89.3125 384.25 C-90.50665527 384.44932129 -91.70081055 384.64864258 -92.93115234 384.85400391 C-135.47112235 392.13551939 -176.80049314 404.95275552 -216.3125 422.25 C-217.42608887 422.73726563 -218.53967773 423.22453125 -219.68701172 423.7265625 C-265.14528793 443.79608625 -307.21932333 470.38243956 -345.3125 502.25 C-345.90869141 502.74709473 -346.50488281 503.24418945 -347.11914062 503.75634766 C-360.63976419 515.06701263 -373.3326874 527.1851868 -385.8125 539.625 C-386.74449219 540.55231934 -387.67648437 541.47963867 -388.63671875 542.43505859 C-393.73731323 547.54761334 -398.62259972 552.76045275 -403.3125 558.25 C-404.33382647 559.40681513 -405.3572288 560.56180122 -406.3828125 561.71484375 C-413.86642127 570.19472994 -420.87591565 578.94874123 -427.64013672 588.01123047 C-429.34704019 590.29623847 -431.06596936 592.57188081 -432.78515625 594.84765625 C-448.80254473 616.18049081 -462.58996248 638.83122988 -475.3125 662.25 C-475.75352051 663.05679199 -476.19454102 663.86358398 -476.64892578 664.69482422 C-510.17459756 726.27332838 -528.20725868 793.97653238 -536.3125 863.25 C-536.44672363 864.37067871 -536.58094727 865.49135742 -536.71923828 866.64599609 C-540.95637365 903.91014162 -539.85502158 943.04818255 -535.3125 980.25 C-535.22764343 980.95114929 -535.14278687 981.65229858 -535.05535889 982.37469482 C-523.56166206 1076.30170832 -487.79374977 1165.21826535 -413.3125 1264.25 C-412.81540527 1264.84619141 -412.31831055 1265.44238281 -411.80615234 1266.05664062 C-400.49548737 1279.57726419 -388.3773132 1292.2701874 -375.9375 1304.75 C-375.01018066 1305.68199219 -374.08286133 1306.61398437 -373.12744141 1307.57421875 C-368.01578509 1312.6739169 -362.81314698 1317.57385797 -357.3125 1322.25 C-356.20628618 1323.21138294 -355.10078917 1324.17359144 -353.99609375 1325.13671875 C-285.77343774 1384.14994057 -203.46620016 1425.89461839 -67.5 1453.5 C-65.80701782 1453.72671387 -65.80701782 1453.72671387 -64.07983398 1453.95800781 C-41.62420823 1456.75411271 -19.17390157 1457.59928331 3.4375 1457.5 C4.70498077 1457.49689819 5.97246155 1457.49379639 7.27835083 1457.49060059 C26.15774632 1457.43655042 44.888839 1457.12046296 63.6875 1455.25 C65.04897361 1455.1196112 66.41046524 1454.98941041 67.77197266 1454.859375 C148.10430571 1447.07126036 228.28594269 1425.31197518 297.6875 1383.25 C298.4933252 1382.76321777 299.29915039 1382.27643555 300.12939453 1381.77490234 C335.82609718 1360.06793129 370.79905909 1332.42998763 397.6875 1300.25 C398.85732422 1298.91388672 398.85732422 1298.91388672 400.05078125 1297.55078125 C423.01329082 1271.19680719 440.95871095 1241.33308312 456.6875 1210.25 C457.09355469 1209.45400391 457.49960938 1208.65800781 457.91796875 1207.83789062 C472.77271758 1178.50863398 482.49235392 1146.73676912 490.03662109 1114.83520508 C490.84598417 1111.62052179 491.77679812 1108.43745657 492.6875 1105.25 C330.6575 1105.25 168.6275 1105.25 1.6875 1105.25 C1.6875 988.1 1.6875 870.95 1.6875 750.25 C283.8375 750.25 565.9875 750.25 856.6875 750.25 C860.39748119 766.94491536 864.00010286 783.47253648 866.8125 800.3125 C867.06546844 801.81132217 867.06546844 801.81132217 867.32354736 803.34042358 C869.51685418 816.38065068 871.52501705 829.4278849 873.0625 842.5625 C873.20574707 843.78396729 873.34899414 845.00543457 873.49658203 846.26391602 C873.85059466 849.48981848 874.17502915 852.71657714 874.47293091 855.94812012 C874.62454002 857.57457037 874.78261671 859.20042393 874.94528198 860.82580566 C876.92843831 880.93580699 877.04707192 900.99480992 877.00535583 921.18036652 C876.99993169 923.90936929 876.99755247 926.63836341 876.9954834 929.36737061 C876.96296859 956.90506244 876.37732797 984.2817017 873.91210938 1011.72503662 C873.68757891 1014.24911298 873.47501789 1016.7739427 873.265625 1019.29931641 C866.2660756 1102.94304055 848.73487821 1185.03107339 821.35229492 1264.32269287 C820.7350887 1266.11203559 820.12224416 1267.90288118 819.50976562 1269.69384766 C810.31814594 1296.47248471 799.2855668 1322.62983125 787.13769531 1348.19384766 C785.69128954 1351.24201389 784.26269379 1354.298064 782.8359375 1357.35546875 C771.36946412 1381.76764694 758.60190849 1405.40255765 744.46044922 1428.36865234 C742.73493429 1431.17291111 741.02426558 1433.98574412 739.31640625 1436.80078125 C732.62848094 1447.77555705 725.61435731 1458.47704725 718.25195312 1469.01074219 C716.74950486 1471.16125022 715.25692467 1473.31831487 713.765625 1475.4765625 C703.3265073 1490.50430336 692.16851331 1505.00626903 680.6875 1519.25 C679.91921875 1520.20390625 679.1509375 1521.1578125 678.359375 1522.140625 C669.42924961 1533.10362446 660.19328765 1543.78314926 650.6875 1554.25 C649.29160785 1555.81244746 647.89577625 1557.37494901 646.5 1558.9375 C644.89900687 1560.71120301 643.29453312 1562.48176757 641.6875 1564.25 C641.2234375 1564.76062988 640.759375 1565.27125977 640.28125 1565.79736328 C632.50234818 1574.32326251 624.46202534 1582.57984295 616.3125 1590.75 C615.38542236 1591.68166992 614.45834473 1592.61333984 613.50317383 1593.57324219 C608.97762651 1598.08861242 604.40307541 1602.46956944 599.55078125 1606.63183594 C596.40207402 1609.36632644 593.40138574 1612.25679614 590.375 1615.125 C585.23035081 1619.96304824 579.9948618 1624.58418248 574.47265625 1628.9921875 C571.8660842 1631.10522908 569.33205034 1633.27882266 566.80371094 1635.48364258 C559.07963018 1642.21026422 551.04013792 1648.44393785 542.86083984 1654.60449219 C540.70549873 1656.23637256 538.5636687 1657.88439956 536.42578125 1659.5390625 C510.47542512 1679.60709879 482.98847093 1697.67371703 454.6875 1714.25 C453.93339844 1714.69279297 453.17929688 1715.13558594 452.40234375 1715.59179688 C438.08093771 1723.97085386 423.46248938 1731.70459662 408.6875 1739.25 C407.32548947 1739.95176204 405.96350583 1740.6535763 404.6015625 1741.35546875 C400.65567837 1743.37364115 396.67874378 1745.32324757 392.6875 1747.25 C391.16455322 1747.98573242 391.16455322 1747.98573242 389.61083984 1748.73632812 C317.646234 1783.3152651 240.6165646 1807.30420076 71.6875 1832.25 C70.3895752 1832.35296387 69.09165039 1832.45592773 67.75439453 1832.56201172 C22.54314728 1836.10819628 -24.12142073 1835.9883743 -69.3125 1832.25 C-70.08613892 1832.18683594 -70.85977783 1832.12367187 -71.65686035 1832.05859375 C-158.68128395 1824.87805584 -244.39387837 1806.26243456 -346.3125 1767.25 C-347.44864746 1766.77884766 -348.58479492 1766.30769531 -349.75537109 1765.82226562 C-383.65344394 1751.67957989 -416.89172906 1736.0649654 -448.72705078 1717.72412109 C-451.82556777 1715.95746901 -454.9547061 1714.25245321 -458.08959961 1712.55151367 C-485.62009295 1697.55892158 -511.93230874 1679.62585918 -537.3125 1661.25 C-538.06934082 1660.70424316 -538.82618164 1660.15848633 -539.60595703 1659.59619141 C-549.49211319 1652.4518281 -559.13481884 1645.08988306 -568.546875 1637.33203125 C-572.10465359 1634.40279355 -575.73188151 1631.571787 -579.375 1628.75 C-589.60157865 1620.78788847 -599.28726369 1612.16430338 -608.87109375 1603.4453125 C-610.89826354 1601.62248143 -612.94457962 1599.82859153 -615.00244141 1598.04077148 C-627.3716722 1587.22116231 -639.06222738 1575.66413377 -650.66137695 1564.03149414 C-652.90135186 1561.7860842 -655.14672696 1559.54617161 -657.39257812 1557.30664062 C-658.84667542 1555.85188354 -660.30046303 1554.39681682 -661.75390625 1552.94140625 C-662.41129288 1552.28604385 -663.0686795 1551.63068146 -663.74598694 1550.95545959 C-667.57171766 1547.11054245 -671.21713657 1543.15775478 -674.754776 1539.0458374 C-677.15890164 1536.27421756 -679.67763679 1533.6129694 -682.1875 1530.9375 C-686.72598524 1526.06414451 -691.00598797 1521.04696023 -695.17578125 1515.8515625 C-697.27132494 1513.30013271 -699.45213155 1510.86673227 -701.6875 1508.4375 C-706.74276665 1502.88197258 -711.31672374 1496.99238161 -715.90966797 1491.05566406 C-717.27544111 1489.29770058 -718.65258845 1487.54946316 -720.03515625 1485.8046875 C-777.25384911 1413.58321834 -823.50436105 1332.04232569 -913.3125 988.25 C-913.37308594 987.52748047 -913.43367187 986.80496094 -913.49609375 986.06054688 C-920.55675298 901.56799147 -914.36099642 814.66333858 -846.3125 564.25 C-846.05273376 563.62003113 -845.79296753 562.99006226 -845.52532959 562.34100342 C-829.9492886 524.68006025 -811.7163772 487.93353702 -790.88916016 452.91113281 C-789.47807511 450.52946249 -788.08364839 448.13941681 -786.69921875 445.7421875 C-773.20295605 422.41160802 -758.14439458 400.05111352 -742.3125 378.25 C-741.79075195 377.52844727 -741.26900391 376.80689453 -740.73144531 376.06347656 C-733.55177822 366.14948733 -726.17972697 356.46153595 -718.39453125 347.015625 C-715.46529355 343.45784641 -712.634287 339.83061849 -709.8125 336.1875 C-701.85038847 325.96092135 -693.22680338 316.27523631 -684.5078125 306.69140625 C-682.68498143 304.66423646 -680.89109153 302.61792038 -679.10327148 300.56005859 C-668.28366231 288.1908278 -656.72663377 276.50027262 -645.09399414 264.90112305 C-642.8485842 262.66114814 -640.60867161 260.41577304 -638.36914062 258.16992188 C-636.91438354 256.71582458 -635.45931682 255.26203697 -634.00390625 253.80859375 C-633.34854385 253.15120712 -632.69318146 252.4938205 -632.01795959 251.81651306 C-628.17304245 247.99078234 -624.22025478 244.34536343 -620.1083374 240.807724 C-617.33671756 238.40359836 -614.6754694 235.88486321 -612 233.375 C-607.12664451 228.83651476 -602.10946023 224.55651203 -596.9140625 220.38671875 C-594.36263271 218.29117506 -591.92923227 216.11036845 -589.5 213.875 C-583.94447258 208.81973335 -578.05488161 204.24577626 -572.11816406 199.65283203 C-570.36020058 198.28705889 -568.61196316 196.90991155 -566.8671875 195.52734375 C-494.64571834 138.30865089 -413.10482569 92.05813895 -295.3125 48.25 C-294.65759583 48.02332642 -294.00269165 47.79665283 -293.32794189 47.56311035 C-216.161055 20.95383901 -134.71333855 6.07304073 -53.3125 1.25 C-52.50918243 1.20194214 -51.70586487 1.15388428 -50.87820435 1.10437012 C-33.92859438 0.12645634 -16.97334737 0.00481583 0 0 Z " fill="#34A853" transform="translate(998.3125,82.75)"/>
<path d="M0 0 C1.0767889 -0.00066278 1.0767889 -0.00066278 2.17533112 -0.00133896 C88.41548785 -0.02902195 174.21250253 11.6092903 460.02636719 123.67333984 C462.40803751 125.08442489 464.79808319 126.47885161 467.1953125 127.86328125 C492.20192052 142.32831811 516.15113665 158.54233146 539.44580078 175.60986328 C541.78069641 177.31818705 544.12252205 179.01671973 546.46484375 180.71484375 C555.49117339 187.28324838 564.28876675 194.05190395 572.90234375 201.15234375 C576.56930716 204.1715868 580.30878552 207.08988589 584.0625 210 C589.08323287 213.90579654 593.86880984 217.99379469 598.5546875 222.30078125 C601.19370497 224.71263055 603.91779213 226.99050147 606.6875 229.25 C601.50055874 235.53064965 595.82198559 241.2530885 590.05740356 247.00035095 C588.97543903 248.08275205 587.89369448 249.16537309 586.81214988 250.2481938 C583.85213557 253.21043626 580.88902557 256.16956483 577.92538595 259.12817967 C574.7252829 262.32395423 571.52808064 265.52262861 568.33052063 268.72094727 C562.79430862 274.25768299 557.25627226 279.79258847 551.7169838 285.32624626 C543.70815734 293.32693708 535.70210177 301.33039595 527.69671439 309.33452768 C514.70764319 322.32141161 501.71634155 335.30606195 488.72363281 348.28930664 C476.10429554 360.8994614 463.48601159 373.51066862 450.86914062 386.12329102 C450.09111112 386.9010578 449.31308162 387.67882458 448.51147546 388.48016005 C444.60823946 392.38209099 440.70502413 396.28404261 436.80181909 400.18600452 C404.43358432 432.54387678 372.06172777 464.89812384 339.6875 497.25 C336.31123666 495.01225387 332.99188652 492.78932098 329.83203125 490.25390625 C319.10690045 481.73352392 308.12776766 473.78210169 296.6875 466.25 C295.82640625 465.6828125 294.9653125 465.115625 294.078125 464.53125 C280.2853857 455.49740906 266.1611099 447.14437318 251.6875 439.25 C251.12385742 438.94136017 250.56021484 438.63272034 249.97949219 438.31472778 C240.83303044 433.31839885 231.57262508 428.70443209 222.0625 424.4375 C221.40341644 424.14074371 220.74433289 423.84398743 220.0652771 423.53823853 C163.92240338 398.33925309 104.82817052 383.7802742 43.6875 378.25 C42.54474609 378.1454248 41.40199219 378.04084961 40.22460938 377.93310547 C27.65206102 376.93875706 15.0417696 377.00724157 2.4375 377 C1.21984955 376.99899292 0.0021991 376.99798584 -1.25234985 376.99694824 C-21.4328889 377.0082013 -41.28267378 377.79891639 -61.3125 380.25 C-62.52180176 380.39453613 -63.73110352 380.53907227 -64.97705078 380.68798828 C-73.12155046 381.68846212 -81.21983728 382.8946177 -89.3125 384.25 C-90.50665527 384.44932129 -91.70081055 384.64864258 -92.93115234 384.85400391 C-135.47112235 392.13551939 -176.80049314 404.95275552 -216.3125 422.25 C-217.42608887 422.73726563 -218.53967773 423.22453125 -219.68701172 423.7265625 C-265.14528793 443.79608625 -307.21932333 470.38243956 -345.3125 502.25 C-345.90869141 502.74709473 -346.50488281 503.24418945 -347.11914062 503.75634766 C-360.63976419 515.06701263 -373.3326874 527.1851868 -385.8125 539.625 C-386.74449219 540.55231934 -387.67648437 541.47963867 -388.63671875 542.43505859 C-393.73731323 547.54761334 -398.62259972 552.76045275 -403.3125 558.25 C-404.33382647 559.40681513 -405.3572288 560.56180122 -406.3828125 561.71484375 C-413.86642127 570.19472994 -420.87591565 578.94874123 -427.64013672 588.01123047 C-429.34704019 590.29623847 -431.06596936 592.57188081 -432.78515625 594.84765625 C-448.80254473 616.18049081 -462.58996248 638.83122988 -475.3125 662.25 C-475.75352051 663.05679199 -476.19454102 663.86358398 -476.64892578 664.69482422 C-510.17459756 726.27332838 -528.20725868 793.97653238 -536.3125 863.25 C-536.44672363 864.37067871 -536.58094727 865.49135742 -536.71923828 866.64599609 C-540.95637365 903.91014162 -539.85502158 943.04818255 -535.3125 980.25 C-535.22764343 980.95114929 -535.14278687 981.65229858 -535.05535889 982.37469482 C-531.14755708 1014.30942903 -524.23649467 1045.26765284 -515.20849609 1076.12158203 C-514.15128705 1079.81288357 -513.20261403 1083.51528874 -512.3125 1087.25 C-512.80951416 1087.61125977 -513.30652832 1087.97251953 -513.81860352 1088.34472656 C-523.0572403 1095.07262169 -532.21046328 1101.86262879 -541.09350586 1109.05517578 C-545.77484421 1112.84111378 -550.55376294 1116.47529604 -555.38671875 1120.06640625 C-558.89426993 1122.68419145 -562.35995443 1125.35379506 -565.82470703 1128.02783203 C-571.13738421 1132.12369972 -576.47454886 1136.18714999 -581.8125 1140.25 C-589.66372939 1146.2270963 -597.49859931 1152.22420093 -605.3125 1158.25 C-613.20122739 1164.32672275 -621.10259095 1170.38654068 -629.01464844 1176.43286133 C-633.28623333 1179.69798403 -637.55248874 1182.96979133 -641.8125 1186.25 C-647.53682342 1190.65772904 -653.27520617 1195.04685525 -659.015625 1199.43359375 C-663.28687327 1202.69848676 -667.55281114 1205.97003958 -671.8125 1209.25 C-677.53682342 1213.65772904 -683.27520617 1218.04685525 -689.015625 1222.43359375 C-693.28687327 1225.69848676 -697.55281114 1228.97003958 -701.8125 1232.25 C-707.53682342 1236.65772904 -713.27520617 1241.04685525 -719.015625 1245.43359375 C-723.28687327 1248.69848676 -727.55281114 1251.97003958 -731.8125 1255.25 C-737.53682342 1259.65772904 -743.27520617 1264.04685525 -749.015625 1268.43359375 C-753.28687327 1271.69848676 -757.55281114 1274.97003958 -761.8125 1278.25 C-770.36460151 1284.83426721 -778.94369638 1291.38321953 -787.51953125 1297.93652344 C-794.87210551 1303.55543121 -802.22421351 1309.17493682 -809.5625 1314.8125 C-810.55765625 1315.57691406 -811.5528125 1316.34132813 -812.578125 1317.12890625 C-814.4265515 1318.56275709 -816.24930738 1320.03022671 -818.046875 1321.52734375 C-820.3125 1323.25 -820.3125 1323.25 -822.3125 1323.25 C-840.07690834 1288.09864117 -854.63601666 1251.51391673 -867.3125 1214.25 C-867.66574341 1213.21446991 -867.66574341 1213.21446991 -868.02612305 1212.15802002 C-892.68147769 1139.74108626 -907.11734725 1064.42509251 -913.3125 988.25 C-913.37308594 987.52748047 -913.43367187 986.80496094 -913.49609375 986.06054688 C-920.55675298 901.56799147 -914.36099642 814.66333858 -846.3125 564.25 C-846.05273376 563.62003113 -845.79296753 562.99006226 -845.52532959 562.34100342 C-829.9492886 524.68006025 -811.7163772 487.93353702 -790.88916016 452.91113281 C-789.47807511 450.52946249 -788.08364839 448.13941681 -786.69921875 445.7421875 C-773.20295605 422.41160802 -758.14439458 400.05111352 -742.3125 378.25 C-741.79075195 377.52844727 -741.26900391 376.80689453 -740.73144531 376.06347656 C-733.55177822 366.14948733 -726.17972697 356.46153595 -718.39453125 347.015625 C-715.46529355 343.45784641 -712.634287 339.83061849 -709.8125 336.1875 C-701.85038847 325.96092135 -693.22680338 316.27523631 -684.5078125 306.69140625 C-682.68498143 304.66423646 -680.89109153 302.61792038 -679.10327148 300.56005859 C-668.28366231 288.1908278 -656.72663377 276.50027262 -645.09399414 264.90112305 C-642.8485842 262.66114814 -640.60867161 260.41577304 -638.36914062 258.16992188 C-636.91438354 256.71582458 -635.45931682 255.26203697 -634.00390625 253.80859375 C-633.34854385 253.15120712 -632.69318146 252.4938205 -632.01795959 251.81651306 C-628.17304245 247.99078234 -624.22025478 244.34536343 -620.1083374 240.807724 C-617.33671756 238.40359836 -614.6754694 235.88486321 -612 233.375 C-607.12664451 228.83651476 -602.10946023 224.55651203 -596.9140625 220.38671875 C-594.36263271 218.29117506 -591.92923227 216.11036845 -589.5 213.875 C-583.94447258 208.81973335 -578.05488161 204.24577626 -572.11816406 199.65283203 C-570.36020058 198.28705889 -568.61196316 196.90991155 -566.8671875 195.52734375 C-494.64571834 138.30865089 -413.10482569 92.05813895 -295.3125 48.25 C-294.65759583 48.02332642 -294.00269165 47.79665283 -293.32794189 47.56311035 C-216.161055 20.95383901 -134.71333855 6.07304073 -53.3125 1.25 C-52.50918243 1.20194214 -51.70586487 1.15388428 -50.87820435 1.10437012 C-33.92859438 0.12645634 -16.97334737 0.00481583 0 0 Z " fill="#EA4334" transform="translate(998.3125,82.75)"/>
<path d="M0 0 C282.15 0 564.3 0 855 0 C858.70998119 16.69491536 862.31260286 33.22253648 865.125 50.0625 C865.37796844 51.56132217 865.37796844 51.56132217 865.63604736 53.09042358 C867.82935418 66.13065068 869.83751705 79.1778849 871.375 92.3125 C871.51824707 93.53396729 871.66149414 94.75543457 871.80908203 96.01391602 C872.16309466 99.23981848 872.48752915 102.46657714 872.78543091 105.69812012 C872.93704002 107.32457037 873.09511671 108.95042393 873.25778198 110.57580566 C875.24093831 130.68580699 875.35957192 150.74480992 875.31785583 170.93036652 C875.31243169 173.65936929 875.31005247 176.38836341 875.3079834 179.11737061 C875.27546859 206.65506244 874.68982797 234.0317017 872.22460938 261.47503662 C872.00007891 263.99911298 871.78751789 266.5239427 871.578125 269.04931641 C864.5785756 352.69304055 847.04737821 434.78107339 819.66479492 514.07269287 C819.0475887 515.86203559 818.43474416 517.65288118 817.82226562 519.44384766 C808.63064594 546.22248471 797.5980668 572.37983125 785.45019531 597.94384766 C784.00378954 600.99201389 782.57519379 604.048064 781.1484375 607.10546875 C769.68196412 631.51764694 756.91440849 655.15255765 742.77294922 678.11865234 C741.04743429 680.92291111 739.33676558 683.73574412 737.62890625 686.55078125 C730.94098094 697.52555705 723.92685731 708.22704725 716.56445312 718.76074219 C715.06200486 720.91125022 713.56942467 723.06831487 712.078125 725.2265625 C701.6390073 740.25430336 690.48101331 754.75626903 679 769 C678.23171875 769.95390625 677.4634375 770.9078125 676.671875 771.890625 C667.74174961 782.85362446 658.50578765 793.53314926 649 804 C647.60410785 805.56244746 646.20827625 807.12494901 644.8125 808.6875 C643.21150687 810.46120301 641.60703312 812.23176757 640 814 C639.5359375 814.51062988 639.071875 815.02125977 638.59375 815.54736328 C630.75519838 824.1386404 622.64966164 832.45486675 614.4375 840.6875 C613.95664948 841.17093872 613.47579895 841.65437744 612.9803772 842.15246582 C611.59274082 843.54600198 610.20073089 844.93517882 608.80859375 846.32421875 C608.00220459 847.12947998 607.19581543 847.93474121 606.36499023 848.7644043 C599.78702224 854.98247521 599.78702224 854.98247521 597.0703125 855.04296875 C594.03301778 853.5128599 591.4927501 851.45504272 588.875 849.3125 C587.62422535 848.30923792 586.37289544 847.30666781 585.12109375 846.3046875 C584.45577637 845.7694043 583.79045898 845.23412109 583.10498047 844.68261719 C579.41158389 841.73029879 575.67306832 838.83613987 571.9375 835.9375 C571.16776855 835.3391333 570.39803711 834.7407666 569.60498047 834.12426758 C564.21943703 829.93939229 558.81628644 825.77815929 553.40625 821.625 C548.47145464 817.82900357 543.56454869 813.99701961 538.65234375 810.171875 C534.27855923 806.76757571 529.89641293 803.37502406 525.5 800 C519.53010829 795.41705283 513.59045507 790.79589513 507.65234375 786.171875 C503.27855923 782.76757571 498.89641293 779.37502406 494.5 776 C488.53010829 771.41705283 482.59045507 766.79589513 476.65234375 762.171875 C472.27855923 758.76757571 467.89641293 755.37502406 463.5 752 C457.53010829 747.41705283 451.59045507 742.79589513 445.65234375 738.171875 C441.27855923 734.76757571 436.89641293 731.37502406 432.5 728 C426.53010829 723.41705283 420.59045507 718.79589513 414.65234375 714.171875 C410.27855923 710.76757571 405.89641293 707.37502406 401.5 704 C395.53010829 699.41705283 389.59045507 694.79589513 383.65234375 690.171875 C379.27855923 686.76757571 374.89641293 683.37502406 370.5 680 C364.53010829 675.41705283 358.59045507 670.79589513 352.65234375 666.171875 C348.27855923 662.76757571 343.89641293 659.37502406 339.5 656 C327.91891771 647.10502425 316.35312188 638.18518906 305 629 C308.16964381 625.67698633 311.24616582 623.01080204 315.125 620.5625 C331.64514508 609.76635093 346.91980435 597.55249442 361.48828125 584.265625 C362.90395886 582.98865297 364.32638513 581.71879488 365.77075195 580.47436523 C370.9166625 576.03910753 375.77265349 571.37835473 380.5625 566.5625 C381.27857422 565.85029297 381.99464844 565.13808594 382.73242188 564.40429688 C387.36140631 559.76688844 391.73763609 554.97462996 396 550 C396.85722656 549.02417969 397.71445313 548.04835938 398.59765625 547.04296875 C421.38265495 520.64703523 439.30353782 491.01919908 455 460 C455.60908203 458.80600586 455.60908203 458.80600586 456.23046875 457.58789062 C471.08521758 428.25863398 480.80485392 396.48676912 488.34912109 364.58520508 C489.15848417 361.37052179 490.08929812 358.18745657 491 355 C328.97 355 166.94 355 0 355 C0 237.85 0 120.7 0 0 Z " fill="#4185F3" transform="translate(1000,833)"/>
<path d="M0 0 C3.96487659 1.36622746 6.64201106 3.1488788 9.8125 5.875 C14.29472881 9.63216239 18.86633968 13.20208201 23.5625 16.6875 C29.43325082 21.05280401 35.23710628 25.49327231 41 30 C46.62251569 34.39467204 52.2773499 38.73651168 58 43 C64.49948228 47.84224377 70.90328261 52.79812873 77.2890625 57.7890625 C82.15193845 61.58243996 87.05431553 65.31536655 92 69 C98.49948228 73.84224377 104.90328261 78.79812873 111.2890625 83.7890625 C116.15193845 87.58243996 121.05431553 91.31536655 126 95 C132.49948228 99.84224377 138.90328261 104.79812873 145.2890625 109.7890625 C150.15193845 113.58243996 155.05431553 117.31536655 160 121 C166.49948228 125.84224377 172.90328261 130.79812873 179.2890625 135.7890625 C184.15193845 139.58243996 189.05431553 143.31536655 194 147 C200.49948228 151.84224377 206.90328261 156.79812873 213.2890625 161.7890625 C218.15193845 165.58243996 223.05431553 169.31536655 228 173 C234.49948228 177.84224377 240.90328261 182.79812873 247.2890625 187.7890625 C252.15193845 191.58243996 257.05431553 195.31536655 262 199 C268.49066024 203.83567117 274.88670836 208.78366157 281.26269531 213.76928711 C287.01732396 218.25986805 292.83304317 222.66206804 298.69921875 227.00585938 C302.57583881 229.88668802 306.31629058 232.87562683 310 236 C308.65654189 240.96439759 307.30485866 245.92626989 305.91162109 250.87695312 C296.52176271 284.24337981 290.02791821 317.57439186 286 352 C285.79866455 353.68101807 285.79866455 353.68101807 285.59326172 355.39599609 C281.35612635 392.66014162 282.45747842 431.79818255 287 469 C287.08485657 469.70114929 287.16971313 470.40229858 287.25714111 471.12469482 C291.16494292 503.05942903 298.07600533 534.01765284 307.10400391 564.87158203 C308.16121295 568.56288357 309.10988597 572.26528874 310 576 C309.50298584 576.36125977 309.00597168 576.72251953 308.49389648 577.09472656 C299.2552597 583.82262169 290.10203672 590.61262879 281.21899414 597.80517578 C276.53765579 601.59111378 271.75873706 605.22529604 266.92578125 608.81640625 C263.41823007 611.43419145 259.95254557 614.10379506 256.48779297 616.77783203 C251.17511579 620.87369972 245.83795114 624.93714999 240.5 629 C232.64877061 634.9770963 224.81390069 640.97420093 217 647 C209.11127261 653.07672275 201.20990905 659.13654068 193.29785156 665.18286133 C189.02626667 668.44798403 184.76001126 671.71979133 180.5 675 C174.77567658 679.40772904 169.03729383 683.79685525 163.296875 688.18359375 C159.02562673 691.44848676 154.75968886 694.72003958 150.5 698 C144.77567658 702.40772904 139.03729383 706.79685525 133.296875 711.18359375 C129.02562673 714.44848676 124.75968886 717.72003958 120.5 721 C114.77567658 725.40772904 109.03729383 729.79685525 103.296875 734.18359375 C99.02562673 737.44848676 94.75968886 740.72003958 90.5 744 C84.77567658 748.40772904 79.03729383 752.79685525 73.296875 757.18359375 C69.02562673 760.44848676 64.75968886 763.72003958 60.5 767 C51.94789849 773.58426721 43.36880362 780.13321953 34.79296875 786.68652344 C27.44039449 792.30543121 20.08828649 797.92493682 12.75 803.5625 C11.75484375 804.32691406 10.7596875 805.09132813 9.734375 805.87890625 C7.8859485 807.31275709 6.06319262 808.78022671 4.265625 810.27734375 C2 812 2 812 0 812 C-17.76440834 776.84864117 -32.32351666 740.26391673 -45 703 C-45.35324341 701.96446991 -45.35324341 701.96446991 -45.71362305 700.90802002 C-70.36897769 628.49108626 -84.80484725 553.17509251 -91 477 C-91.06058594 476.27748047 -91.12117188 475.55496094 -91.18359375 474.81054688 C-98.24425298 390.31799147 -92.04849642 303.41333858 0 0 Z " fill="#FABB05" transform="translate(176,594)"/>
</svg>
